<?xml version="1.0" encoding="UTF-8"?>
<svg version="1.1" xmlns="http://www.w3.org/2000/svg" width="222" height="195">
<path d="M0 0 C12.11571432 4.43773257 28.3117605 12.44143691 34.18359375 24.41015625 C35.9642765 30.05892497 36.57201604 36.50380237 34.09545898 42.01171875 C31.18145834 47.13987973 27.88191061 49.9876073 22.8125 52.875 C22.12559082 53.28500244 21.43868164 53.69500488 20.73095703 54.11743164 C18.5007573 55.43655293 16.25404484 56.72209011 14 58 C12.80914795 58.67893311 12.80914795 58.67893311 11.59423828 59.37158203 C6.42739984 62.30584876 1.23715426 65.19308907 -4 68 C-5.0725 68.58136719 -6.145 69.16273438 -7.25 69.76171875 C-12.52051377 72.13494725 -17.27027465 71.46126009 -22.75 70 C-27.55747731 67.9693367 -31.89279696 65.10186774 -36.28515625 62.30859375 C-38.93752572 60.63253888 -41.63102057 59.06353878 -44.37109375 57.53515625 C-62.14090403 47.57728791 -62.14090403 47.57728791 -65 39 C-66.06638559 31.2933548 -66.12725028 23.57755327 -66.0625 15.8125 C-66.05798828 14.76513672 -66.05347656 13.71777344 -66.04882812 12.63867188 C-66.03720124 10.09238464 -66.02086281 7.5462254 -66 5 C-63 4 -63 4 -60.38720703 5.13647461 C-59.35450684 5.71921143 -58.32180664 6.30194824 -57.2578125 6.90234375 C-55.53304687 7.86817383 -55.53304687 7.86817383 -53.7734375 8.85351562 C-52.55728144 9.54815918 -51.34113564 10.2428207 -50.125 10.9375 C-48.94840537 11.59787669 -47.77132614 12.25739075 -46.59375 12.91601562 C-37.43961282 18.06118288 -28.50804935 23.53409118 -19.62060547 29.12646484 C-12.33266129 33.75751968 -12.33266129 33.75751968 -4 34 C-1.88691841 27.01057628 -1.60897281 20.33545667 -1.4375 13.0625 C-1.3778797 10.80327119 -1.31430469 8.54414201 -1.24609375 6.28515625 C-1.21020142 4.79834351 -1.21020142 4.79834351 -1.17358398 3.28149414 C-1 1 -1 1 0 0 Z " fill="#11D4B0" transform="translate(135,117)"/>
<path d="M0 0 C0.71518799 0.3923584 1.43037598 0.7847168 2.16723633 1.18896484 C4.53904924 2.50332859 6.89514751 3.84300494 9.25 5.1875 C10.11995605 5.67814941 10.98991211 6.16879883 11.88623047 6.67431641 C14.58103353 8.20203662 17.26119218 9.75263574 19.9375 11.3125 C20.77442383 11.79050049 21.61134766 12.26850098 22.47363281 12.76098633 C28.81569905 16.53067867 33.90921243 20.33530978 36.39453125 27.47583008 C37.24654712 31.1725188 37.49381495 34.35865843 37.48046875 38.14453125 C37.47853516 39.42134766 37.47660156 40.69816406 37.47460938 42.01367188 C37.46236328 43.32916016 37.45011719 44.64464844 37.4375 46 C37.43604132 47.34830666 37.43538342 48.69661444 37.43554688 50.04492188 C37.39051699 59.90646601 37.39051699 59.90646601 36.25 62.1875 C32.1489205 61.59504946 29.23582845 60.24855118 25.671875 58.16015625 C24.60106689 57.53729736 23.53025879 56.91443848 22.42700195 56.27270508 C21.29609131 55.6052124 20.16518066 54.93771973 19 54.25 C17.8287292 53.56538297 16.65709586 52.88138583 15.48510742 52.19799805 C12.0683547 50.20302184 8.65892275 48.19582578 5.25 46.1875 C3.5014715 45.16116965 1.75279297 44.13509482 0.00390625 43.109375 C-2.75413222 41.49041225 -5.50921873 39.86663821 -8.26171875 38.23828125 C-8.83809082 37.89990234 -9.41446289 37.56152344 -10.00830078 37.21289062 C-11.22924561 36.49408375 -12.44604038 35.76820285 -13.65966797 35.03710938 C-17.33377847 32.81106456 -17.33377847 32.81106456 -21.5 32.0625 C-24.03917803 33.33208901 -24.91762759 34.51021424 -26.11669922 37.05224609 C-27.59566897 42.0387802 -27.33963928 47.40104598 -27.4375 52.5625 C-27.47166016 53.77550781 -27.50582031 54.98851562 -27.54101562 56.23828125 C-27.62322375 59.22126181 -27.69246526 62.20395842 -27.75 65.1875 C-30.96821924 66.23617695 -31.46068758 66.33389906 -34.66796875 64.7109375 C-35.74691406 64.00195312 -36.82585937 63.29296875 -37.9375 62.5625 C-41.75527817 60.08228282 -45.54710537 57.72293794 -49.625 55.6875 C-56.53171477 51.90404228 -61.53432574 45.74685922 -63.75 38.1875 C-64.4912385 32.54482189 -64.3205667 27.21005567 -61.34423828 22.23510742 C-55.36793532 14.5592647 -45.11510077 9.87913857 -36.71411133 5.28515625 C-34.91665789 4.3010894 -33.12705973 3.30372334 -31.33789062 2.3046875 C-19.5999551 -4.17323093 -12.00232669 -6.75012829 0 0 Z " fill="#11D4B0" transform="translate(133.75,55.8125)"/>
<path d="M0 0 C6.30660639 1.12394965 10.87021878 3.38442113 16.1875 6.875 C16.87263672 7.30941406 17.55777344 7.74382812 18.26367188 8.19140625 C25.36591215 12.7439491 31.08549211 16.79179412 34 25 C34.95435524 31.2453007 35.04745286 37.04855745 31.8125 42.625 C29.02301067 46.29782762 26.66744384 48.605269 21.94433594 49.30419922 C14.17387594 49.71092187 9.02850037 46.98853744 2.4375 43.125 C1.44169922 42.56941406 0.44589844 42.01382813 -0.58007812 41.44140625 C-7.83422619 37.33154762 -7.83422619 37.33154762 -9 35 C-8.1028125 34.7525 -8.1028125 34.7525 -7.1875 34.5 C-3.7939663 32.17300546 -2.9666637 28.84346982 -2 25 C-1.54567304 20.85606176 -1.44506223 16.72870074 -1.375 12.5625 C-1.32425693 10.39703939 -1.26978324 8.23166182 -1.2109375 6.06640625 C-1.19337402 5.11709229 -1.17581055 4.16777832 -1.15771484 3.18969727 C-1 1 -1 1 0 0 Z " fill="#0A334B" transform="translate(136,119)"/>
<path d="M0 0 C6.46386221 -0.94488351 11.00058716 2.37962051 16.375 5.5 C17.30183594 6.02464844 18.22867188 6.54929687 19.18359375 7.08984375 C21.46246505 8.38198727 23.73396854 9.68551106 26 11 C25.68950274 12.43793392 25.3765224 13.8753318 25.0625 15.3125 C24.88847656 16.11300781 24.71445313 16.91351563 24.53515625 17.73828125 C24 20 24 20 23 23 C22.85013589 24.9906444 22.75171962 26.98535391 22.68359375 28.98046875 C22.62075195 30.72553711 22.62075195 30.72553711 22.55664062 32.50585938 C22.51732422 33.72080078 22.47800781 34.93574219 22.4375 36.1875 C22.37272461 38.02731445 22.37272461 38.02731445 22.30664062 39.90429688 C22.2004691 42.93608381 22.09842048 45.96795315 22 49 C18.78178076 50.04867695 18.28931242 50.14639906 15.08203125 48.5234375 C14.00308594 47.81445312 12.92414063 47.10546875 11.8125 46.375 C7.99472183 43.89478282 4.20289463 41.53543794 0.125 39.5 C-6.78171477 35.71654228 -11.78432574 29.55935922 -14 22 C-14.90647425 15.09946475 -13.89426665 9.79876202 -10 4 C-7.41212273 1.41212273 -5.57992139 1.37290848 -2 1 C-1.34 1.33 -0.68 1.66 0 2 C0 1.34 0 0.68 0 0 Z " fill="#0A344B" transform="translate(84,72)"/>
<path d="M0 0 C4.43680343 1.33797159 8.22535652 3.09645837 12.23828125 5.40625 C12.80451706 5.73161743 13.37075287 6.05698486 13.95414734 6.39221191 C15.13968556 7.07535587 16.32365653 7.76122634 17.50610352 8.44970703 C19.32043414 9.50461315 21.14120911 10.54769409 22.96289062 11.58984375 C24.11758872 12.25711868 25.27189993 12.92506366 26.42578125 13.59375 C27.47161377 14.19896484 28.51744629 14.80417969 29.5949707 15.42773438 C32 17 32 17 33 19 C31 18.33333333 29 17.66666667 27 17 C25.989375 16.67 24.97875 16.34 23.9375 16 C12.56410256 12.12820513 12.56410256 12.12820513 11 9 C8.69034152 7.94647157 6.3570226 6.94280904 4 6 C4 5.34 4 4.68 4 4 C3.34 4 2.68 4 2 4 C2.33 15.55 2.66 27.1 3 39 C5.98806107 40.49403054 8.89656201 41.79310745 12 43 C12.33 42.34 12.66 41.68 13 41 C13.33 41.99 13.66 42.98 14 44 C13.67 44.66 13.34 45.32 13 46 C14.32 46.33 15.64 46.66 17 47 C17 47.99 17 48.98 17 50 C10.70402827 48.70851862 6.20787606 44.67074243 2 40 C-2.0096332 31.41606016 -1.16087751 21.15531651 -1.125 11.875 C-1.12886719 10.83601562 -1.13273437 9.79703125 -1.13671875 8.7265625 C-1.13542969 7.74171875 -1.13414063 6.756875 -1.1328125 5.7421875 C-1.13168457 4.8538623 -1.13055664 3.96553711 -1.12939453 3.05029297 C-1 1 -1 1 0 0 Z " fill="#38C1A8" transform="translate(70,121)"/>
<path d="M0 0 C1.38915862 0.74502639 2.77053967 1.50470339 4.14453125 2.27734375 C4.87341553 2.67493896 5.6022998 3.07253418 6.35327148 3.48217773 C13.02997798 7.16198246 19.53161048 11.1137491 25.95703125 15.21484375 C23.95703125 16.21484375 23.95703125 16.21484375 20.89453125 15.40234375 C17.95703125 14.21484375 17.95703125 14.21484375 16.95703125 12.21484375 C15.24135023 11.41632361 15.24135023 11.41632361 13.20703125 10.77734375 C9.22392116 9.35938506 5.37097999 7.96544696 2.64453125 4.58984375 C-0.17328771 2.29384311 -3.54540914 2.41522477 -7.04296875 2.21484375 C-7.80609375 2.16199219 -8.56921875 2.10914063 -9.35546875 2.0546875 C-14.43273025 1.85742903 -17.56228288 2.59200324 -22.04296875 5.21484375 C-22.70296875 5.21484375 -23.36296875 5.21484375 -24.04296875 5.21484375 C-24.04296875 5.87484375 -24.04296875 6.53484375 -24.04296875 7.21484375 C-26.02296875 7.54484375 -28.00296875 7.87484375 -30.04296875 8.21484375 C-30.04296875 8.87484375 -30.04296875 9.53484375 -30.04296875 10.21484375 C-31.03296875 10.54484375 -32.02296875 10.87484375 -33.04296875 11.21484375 C-33.37296875 11.87484375 -33.70296875 12.53484375 -34.04296875 13.21484375 C-35.36296875 13.21484375 -36.68296875 13.21484375 -38.04296875 13.21484375 C-38.04296875 13.87484375 -38.04296875 14.53484375 -38.04296875 15.21484375 C-39.03296875 15.54484375 -40.02296875 15.87484375 -41.04296875 16.21484375 C-40.05296875 17.20484375 -39.06296875 18.19484375 -38.04296875 19.21484375 C-40.68296875 18.88484375 -43.32296875 18.55484375 -46.04296875 18.21484375 C-46.04296875 18.87484375 -46.04296875 19.53484375 -46.04296875 20.21484375 C-48.02296875 20.21484375 -50.00296875 20.21484375 -52.04296875 20.21484375 C-49.3864058 17.38808528 -46.85143143 15.32124774 -43.48046875 13.41015625 C-42.60632324 12.91169189 -41.73217773 12.41322754 -40.83154297 11.8996582 C-39.91131348 11.38491943 -38.99108398 10.87018066 -38.04296875 10.33984375 C-37.10340332 9.8089917 -36.16383789 9.27813965 -35.19580078 8.73120117 C-10.49757248 -5.13786945 -10.49757248 -5.13786945 0 0 Z " fill="#68D8C5" transform="translate(130.04296875,53.78515625)"/>
<path d="M0 0 C3.29566605 0.99868668 5.91366401 2.48438473 8.625 4.5625 C9.19476563 4.99691406 9.76453125 5.43132812 10.3515625 5.87890625 C16.20147766 13.40616675 15.39383911 22.8801309 15.25 31.9375 C15.24351248 33.27668712 15.23829508 34.61588103 15.234375 35.95507812 C15.15478084 45.69043831 15.15478084 45.69043831 14 48 C8.67501327 47.49844814 4.64794605 44.65564273 0.1875 41.9375 C-0.60076172 41.46505859 -1.38902344 40.99261719 -2.20117188 40.50585938 C-4.13812608 39.34368685 -6.07078295 38.17495583 -8 37 C-5.35229699 35.6761485 -4.45512597 36.27115997 -1.6875 37.1875 C2.20132654 38.54609645 4.89779581 40.25233344 8 43 C9.32 43.66 10.64 44.32 12 45 C11.67 33.78 11.34 22.56 11 11 C10.01 10.67 9.02 10.34 8 10 C7.34 9.01 6.68 8.02 6 7 C3.44816596 5.79549696 3.44816596 5.79549696 1 5 C1 4.34 1 3.68 1 3 C0.34 3 -0.32 3 -1 3 C-0.67 2.01 -0.34 1.02 0 0 Z " fill="#78DBCB" transform="translate(156,70)"/>
<path d="M0 0 C0.99 0.33 1.98 0.66 3 1 C2.84152588 1.69762451 2.68305176 2.39524902 2.51977539 3.11401367 C1.96990445 6.16710168 1.79048117 9.07604597 1.68359375 12.17578125 C1.64169922 13.33271484 1.59980469 14.48964844 1.55664062 15.68164062 C1.51732422 16.87982422 1.47800781 18.07800781 1.4375 19.3125 C1.39431641 20.53001953 1.35113281 21.74753906 1.30664062 23.00195312 C1.20078504 26.0011947 1.09870274 29.00051591 1 32 C-2.23183833 33.05187191 -2.75207929 33.11785868 -6.015625 31.56640625 C-7.08296875 30.90511719 -8.1503125 30.24382812 -9.25 29.5625 C-10.32765625 28.90378906 -11.4053125 28.24507812 -12.515625 27.56640625 C-13.33546875 27.04949219 -14.1553125 26.53257813 -15 26 C-14.01 25.34 -13.02 24.68 -12 24 C-11.67 24.66 -11.34 25.32 -11 26 C-8.03 26 -5.06 26 -2 26 C-2.02320312 24.54207031 -2.04640625 23.08414063 -2.0703125 21.58203125 C-2.08907515 19.6588593 -2.10727482 17.73568179 -2.125 15.8125 C-2.14175781 14.85279297 -2.15851563 13.89308594 -2.17578125 12.90429688 C-2.18222656 11.97294922 -2.18867187 11.04160156 -2.1953125 10.08203125 C-2.20578613 9.22843018 -2.21625977 8.3748291 -2.22705078 7.49536133 C-1.97204194 4.69273185 -1.15541422 2.55270581 0 0 Z " fill="#637680" transform="translate(105,89)"/>
<path d="M0 0 C4.43680343 1.33797159 8.22535652 3.09645837 12.23828125 5.40625 C12.80451706 5.73161743 13.37075287 6.05698486 13.95414734 6.39221191 C15.13968556 7.07535587 16.32365653 7.76122634 17.50610352 8.44970703 C19.32043414 9.50461315 21.14120911 10.54769409 22.96289062 11.58984375 C24.11758872 12.25711868 25.27189993 12.92506366 26.42578125 13.59375 C27.47161377 14.19896484 28.51744629 14.80417969 29.5949707 15.42773438 C32 17 32 17 33 19 C27.68096358 17.50061808 23.36727764 15.03223502 18.6875 12.1875 C12.84721165 8.6748243 6.96291702 5.31273168 1 2 C1 12.89 1 23.78 1 35 C0.67 35 0.34 35 0 35 C-0.83663148 27.27211693 -1.15504077 19.64554609 -1.125 11.875 C-1.12886719 10.83601562 -1.13273437 9.79703125 -1.13671875 8.7265625 C-1.13542969 7.74171875 -1.13414063 6.756875 -1.1328125 5.7421875 C-1.13168457 4.8538623 -1.13055664 3.96553711 -1.12939453 3.05029297 C-1 1 -1 1 0 0 Z " fill="#B4F3EC" transform="translate(70,121)"/>
<path d="M0 0 C2.97 0 5.94 0 9 0 C9 0.99 9 1.98 9 3 C11.50497004 4.25248502 13.20853274 4.11374406 16.0078125 4.09765625 C16.99394531 4.09443359 17.98007813 4.09121094 18.99609375 4.08789062 C20.54490234 4.07532227 20.54490234 4.07532227 22.125 4.0625 C23.16527344 4.05798828 24.20554687 4.05347656 25.27734375 4.04882812 C27.85161962 4.03701952 30.42578146 4.02055075 33 4 C29.29709209 7.86160396 26.02956071 9.11021887 20.6875 9.3125 C12.84861343 9.10484738 6.22832882 5.60498779 0 1 C0 0.67 0 0.34 0 0 Z " fill="#43D1B6" transform="translate(100,179)"/>
<path d="M0 0 C6.29357992 1.10413683 10.78306564 3.36479574 16 7 C14 8 14 8 12.125 7.44140625 C11.42375 7.15136719 10.7225 6.86132812 10 6.5625 C7.09084926 5.33442475 7.09084926 5.33442475 4 5 C3.67 5.66 3.34 6.32 3 7 C2.34 7 1.68 7 1 7 C1.02320313 8.19238281 1.04640625 9.38476562 1.0703125 10.61328125 C1.08907178 12.17968124 1.10727181 13.746088 1.125 15.3125 C1.15013672 16.49102539 1.15013672 16.49102539 1.17578125 17.69335938 C1.18222656 18.45068359 1.18867188 19.20800781 1.1953125 19.98828125 C1.21102295 21.03302612 1.21102295 21.03302612 1.22705078 22.09887695 C1 24 1 24 -1 27 C-1.02886537 22.68751391 -1.04675255 18.37505238 -1.0625 14.0625 C-1.07087891 12.83080078 -1.07925781 11.59910156 -1.08789062 10.33007812 C-1.09111328 9.16025391 -1.09433594 7.99042969 -1.09765625 6.78515625 C-1.10289307 5.70113525 -1.10812988 4.61711426 -1.11352539 3.50024414 C-1 1 -1 1 0 0 Z " fill="#1F3846" transform="translate(136,119)"/>
<path d="M0 0 C2.475 0.99 2.475 0.99 5 2 C3.68 2.33 2.36 2.66 1 3 C0.98541748 3.68513672 0.97083496 4.37027344 0.95581055 5.07617188 C0.88076568 8.21797974 0.7842931 11.35878992 0.6875 14.5 C0.66494141 15.57765625 0.64238281 16.6553125 0.61914062 17.765625 C0.1466877 31.8533123 0.1466877 31.8533123 -4 36 C-11.69390848 36.98820843 -16.15250808 34.09634653 -22.5 30 C-23.4178125 29.42765625 -24.335625 28.8553125 -25.28125 28.265625 C-27.53132649 26.85932719 -29.76979621 25.43752564 -32 24 C-31.34 23.67 -30.68 23.34 -30 23 C-28.13989258 23.89624023 -28.13989258 23.89624023 -25.89453125 25.30859375 C-24.66573242 26.05786133 -24.66573242 26.05786133 -23.41210938 26.82226562 C-21.69486847 27.88925152 -19.98123695 28.96207107 -18.27148438 30.04101562 C-13.21452958 33.10834886 -9.94159794 34.71556457 -4 34 C-1.88691841 27.01057628 -1.60897281 20.33545667 -1.4375 13.0625 C-1.3778797 10.80327119 -1.31430469 8.54414201 -1.24609375 6.28515625 C-1.22216553 5.29394775 -1.1982373 4.30273926 -1.17358398 3.28149414 C-1 1 -1 1 0 0 Z " fill="#D4F2F1" transform="translate(135,117)"/>
<path d="M0 0 C0.70125 0.309375 1.4025 0.61875 2.125 0.9375 C5.08936657 2.03302678 7.87698108 2.56422992 11 3 C10.67 3.66 10.34 4.32 10 5 C16.6 8.63 23.2 12.26 30 16 C26.66203244 16.83449189 23.39305036 17.46019653 20 18 C20.66 16.35 21.32 14.7 22 13 C19.69 13.33 17.38 13.66 15 14 C15 12.35 15 10.7 15 9 C14.2575 8.855625 13.515 8.71125 12.75 8.5625 C11.8425 8.376875 10.935 8.19125 10 8 C8.9171875 7.814375 8.9171875 7.814375 7.8125 7.625 C6 7 6 7 4 4 C1.94996045 2.80767387 1.94996045 2.80767387 0 2 C0 1.34 0 0.68 0 0 Z " fill="#23C7AF" transform="translate(118,150)"/>
<path d="M0 0 C0 0.66 0 1.32 0 2 C-0.99 2.33 -1.98 2.66 -3 3 C-3.33 3.66 -3.66 4.32 -4 5 C-5.32 5 -6.64 5 -8 5 C-8 5.66 -8 6.32 -8 7 C-8.99 7.33 -9.98 7.66 -11 8 C-10.01 8.99 -9.02 9.98 -8 11 C-10.64 10.67 -13.28 10.34 -16 10 C-16 10.66 -16 11.32 -16 12 C-17.98 12 -19.96 12 -22 12 C-18.97997293 8.71136475 -15.86209934 6.53803474 -12 4.3125 C-10.96875 3.71050781 -9.9375 3.10851562 -8.875 2.48828125 C-5.80264665 0.89783746 -3.44419226 0 0 0 Z " fill="#6EC8BD" transform="translate(100,62)"/>
<path d="M0 0 C1.98 0 3.96 0 6 0 C1.46928876 3.91416084 -3.52804911 6.8225846 -8.6875 9.8125 C-9.55439453 10.32748047 -10.42128906 10.84246094 -11.31445312 11.37304688 C-12.55678711 12.09524414 -12.55678711 12.09524414 -13.82421875 12.83203125 C-14.57791748 13.27264893 -15.33161621 13.7132666 -16.1081543 14.16723633 C-16.73246338 14.44204834 -17.35677246 14.71686035 -18 15 C-18.66 14.67 -19.32 14.34 -20 14 C-19.67 13.01 -19.34 12.02 -19 11 C-18.01 11 -17.02 11 -16 11 C-16 10.34 -16 9.68 -16 9 C-14.68 9 -13.36 9 -12 9 C-12 8.34 -12 7.68 -12 7 C-10.35 7 -8.7 7 -7 7 C-7 6.34 -7 5.68 -7 5 C-5.68 5 -4.36 5 -3 5 C-3 4.34 -3 3.68 -3 3 C-2.01 3 -1.02 3 0 3 C0 2.01 0 1.02 0 0 Z " fill="#85D9CE" transform="translate(153,168)"/>
<path d="M0 0 C6.34542143 0.77383188 11.46040469 2.46040469 16 7 C18.60611077 7.72197162 18.60611077 7.72197162 21 8 C21 8.99 21 9.98 21 11 C21.99 11.33 22.98 11.66 24 12 C24 12.66 24 13.32 24 14 C18.73202405 11.99839031 14.04578982 9.26697379 9.1875 6.4375 C8.30384766 5.93025391 7.42019531 5.42300781 6.50976562 4.90039062 C5.67509766 4.41634766 4.84042969 3.93230469 3.98046875 3.43359375 C2.83421021 2.76928345 2.83421021 2.76928345 1.66479492 2.09155273 C1.1154126 1.73134033 0.56603027 1.37112793 0 1 C0 0.67 0 0.34 0 0 Z " fill="#6CD6C4" transform="translate(124,92)"/>
<path d="M0 0 C6.08882416 1.59806348 11.0664755 4.8611283 16.375 8.125 C17.30183594 8.68832031 18.22867188 9.25164062 19.18359375 9.83203125 C21.45903155 11.21606043 23.7309763 12.60548922 26 14 C24 15 24 15 20.9375 14.1875 C18 13 18 13 17 11 C15.28431898 10.20147986 15.28431898 10.20147986 13.25 9.5625 C7.34598656 7.44338089 3.75423705 5.14469522 0 0 Z " fill="#85DFD2" transform="translate(130,55)"/>
<path d="M0 0 C0.66 0 1.32 0 2 0 C2 1.32 2 2.64 2 4 C4.93720508 5.52299523 7.9168649 6.80100302 11 8 C11.33 7.34 11.66 6.68 12 6 C12.33 6.99 12.66 7.98 13 9 C12.67 9.66 12.34 10.32 12 11 C13.32 11.33 14.64 11.66 16 12 C16 12.99 16 13.98 16 15 C9.77104914 13.72226649 5.06212914 9.74627721 1 5 C0.23828125 2.23828125 0.23828125 2.23828125 0 0 Z " fill="#3ACFB4" transform="translate(71,156)"/>
<path d="M0 0 C6.8680694 0.9094084 11.06265089 2.06265089 16 7 C16.61875 7.598125 17.2375 8.19625 17.875 8.8125 C18.24625 9.204375 18.6175 9.59625 19 10 C18.01 10.495 18.01 10.495 17 11 C15.21240234 10.21142578 15.21240234 10.21142578 13.0859375 8.9453125 C12.32539063 8.49542969 11.56484375 8.04554687 10.78125 7.58203125 C9.9871875 7.10121094 9.193125 6.62039062 8.375 6.125 C7.57320312 5.65191406 6.77140625 5.17882812 5.9453125 4.69140625 C1.61571608 2.10690226 1.61571608 2.10690226 0 1 C0 0.67 0 0.34 0 0 Z " fill="#70DAC9" transform="translate(148,106)"/>
<path d="M0 0 C0.66 0.33 1.32 0.66 2 1 C2 1.33 2 1.66 2 2 C3.32 2.33 4.64 2.66 6 3 C4.9171875 3.5878125 4.9171875 3.5878125 3.8125 4.1875 C-1.73110701 7.65720509 -1.73110701 7.65720509 -4.53515625 13.32421875 C-4.78397735 15.55659956 -4.9461991 17.75503525 -5 20 C-5.33 20 -5.66 20 -6 20 C-6.51554714 13.01147209 -5.96146059 7.89881722 -2 2 C-1.34 1.34 -0.68 0.68 0 0 Z " fill="#5A727F" transform="translate(76,74)"/>
<path d="M0 0 C4.98012761 1.50912958 8.24259942 4.55661849 12 8 C11.67 8.66 11.34 9.32 11 10 C10.278125 9.54625 9.55625 9.0925 8.8125 8.625 C6.25105919 7.14505642 3.76722011 6.02782461 1 5 C1 4.34 1 3.68 1 3 C0.34 3 -0.32 3 -1 3 C-0.67 2.01 -0.34 1.02 0 0 Z " fill="#51D3BC" transform="translate(156,70)"/>
<path d="M0 0 C-5.97332123 3.4753869 -10.11509775 4.57374185 -17 4 C-17 3.34 -17 2.68 -17 2 C-17.66 1.67 -18.32 1.34 -19 1 C-17.824375 1.04125 -16.64875 1.0825 -15.4375 1.125 C-9.93259658 1.15422958 -5.3482694 -1.66261418 0 0 Z " fill="#60D5BF" transform="translate(133,184)"/>
<path d="M0 0 C5.64913063 1.65707832 10.26300637 3.47762012 15 7 C13 8 13 8 11.125 7.44140625 C10.42375 7.15136719 9.7225 6.86132812 9 6.5625 C6.09084926 5.33442475 6.09084926 5.33442475 3 5 C2.67 5.66 2.34 6.32 2 7 C1.34 7 0.68 7 0 7 C0 4.69 0 2.38 0 0 Z " fill="#627984" transform="translate(137,119)"/>
<path d="M0 0 C0.70125 0.309375 1.4025 0.61875 2.125 0.9375 C5.08936657 2.03302678 7.87698108 2.56422992 11 3 C10.67 3.66 10.34 4.32 10 5 C12.64 6.32 15.28 7.64 18 9 C17.01 9.66 16.02 10.32 15 11 C15 10.34 15 9.68 15 9 C14.2575 8.855625 13.515 8.71125 12.75 8.5625 C11.8425 8.376875 10.935 8.19125 10 8 C8.9171875 7.814375 8.9171875 7.814375 7.8125 7.625 C6 7 6 7 4 4 C1.94996045 2.80767387 1.94996045 2.80767387 0 2 C0 1.34 0 0.68 0 0 Z " fill="#29C2AC" transform="translate(118,150)"/>
<path d="M0 0 C5.60223327 2.28239133 9.28308108 6.70915789 12 12 C12 12.66 12 13.32 12 14 C9.525 13.01 9.525 13.01 7 12 C7.33 10.68 7.66 9.36 8 8 C7.4225 7.731875 6.845 7.46375 6.25 7.1875 C3.92636635 5.9611378 1.96175354 4.75156566 0 3 C0 2.01 0 1.02 0 0 Z " fill="#687C8A" transform="translate(157,130)"/>
<path d="M0 0 C4.43090471 1.20842856 6.98112756 2.51668565 10 6 C7.02148438 6.29296875 7.02148438 6.29296875 4.04296875 6.5859375 C1.70011858 6.92665391 1.70011858 6.92665391 -1 9 C-1.125 6.625 -1.125 6.625 -1 4 C-0.34 3.34 0.32 2.68 1 2 C0.34 1.67 -0.32 1.34 -1 1 C-0.67 0.67 -0.34 0.34 0 0 Z " fill="#3FA49C" transform="translate(109,81)"/>
<path d="M0 0 C-0.75 1.9375 -0.75 1.9375 -2 4 C-4.125 4.75 -4.125 4.75 -6 5 C-6 5.66 -6 6.32 -6 7 C-9.3 7.66 -12.6 8.32 -16 9 C-13.17547052 6.17547052 -10.91210869 4.6862903 -7.4375 2.8125 C-6.46683594 2.28269531 -5.49617188 1.75289062 -4.49609375 1.20703125 C-2 0 -2 0 0 0 Z " fill="#7EDCCE" transform="translate(112,54)"/>
<path d="M0 0 C3.40202433 1.28924356 6.50564554 2.7652076 9.64453125 4.6015625 C10.48564453 5.09140625 11.32675781 5.58125 12.19335938 6.0859375 C13.05767578 6.59382812 13.92199219 7.10171875 14.8125 7.625 C15.69615234 8.140625 16.57980469 8.65625 17.49023438 9.1875 C19.66194789 10.45531114 21.8317818 11.72622348 24 13 C21 14 21 14 19.16235352 13.22729492 C18.49131592 12.81584229 17.82027832 12.40438965 17.12890625 11.98046875 C16.38962891 11.53509766 15.65035156 11.08972656 14.88867188 10.63085938 C13.7372168 9.91639648 13.7372168 9.91639648 12.5625 9.1875 C11.04357443 8.26332672 9.52406198 7.34011718 8.00390625 6.41796875 C7.33174072 6.00313232 6.6595752 5.5882959 5.96704102 5.16088867 C4.01731299 4.01021761 2.03630709 2.98789448 0 2 C0 1.34 0 0.68 0 0 Z " fill="#42C3AC" transform="translate(94,136)"/>
<path d="M0 0 C5.625 -0.25 5.625 -0.25 9 2 C9 2.66 9 3.32 9 4 C10.32 4 11.64 4 13 4 C13 5.32 13 6.64 13 8 C8.27626146 6.37621488 4.05818166 3.89006982 0 1 C0 0.67 0 0.34 0 0 Z " fill="#61D4C0" transform="translate(87,171)"/>
<path d="M0 0 C1.65 0.33 3.3 0.66 5 1 C5 1.99 5 2.98 5 4 C4.01 4 3.02 4 2 4 C2 4.66 2 5.32 2 6 C0.68 6 -0.64 6 -2 6 C-2 6.66 -2 7.32 -2 8 C-3.65 8 -5.3 8 -7 8 C-7 8.66 -7 9.32 -7 10 C-7.66 10 -8.32 10 -9 10 C-8.67 9.01 -8.34 8.02 -8 7 C-1.88888889 4 -1.88888889 4 1 4 C0.67 2.68 0.34 1.36 0 0 Z " fill="#21CCAF" transform="translate(148,167)"/>
<path d="M0 0 C0.99 0 1.98 0 3 0 C3.5775 0.61875 4.155 1.2375 4.75 1.875 C7.60696242 4.57324229 10.21973355 5.12763082 14 6 C14 6.66 14 7.32 14 8 C14.99 8.33 15.98 8.66 17 9 C17 9.66 17 10.32 17 11 C13.27690287 9.58005967 9.76896899 7.93135786 6.25 6.0625 C5.28578125 5.55847656 4.3215625 5.05445312 3.328125 4.53515625 C1 3 1 3 0 0 Z " fill="#28BEAC" transform="translate(91,71)"/>
<path d="M0 0 C0.66 0.66 1.32 1.32 2 2 C4.21072977 2.24253813 4.21072977 2.24253813 6.625 2.125 C7.44226563 2.10695313 8.25953125 2.08890625 9.1015625 2.0703125 C9.72804688 2.04710938 10.35453125 2.02390625 11 2 C10.67 3.98 10.34 5.96 10 8 C5.69235185 6.43358249 1.93828536 4.31663844 -2 2 C-1.34 1.34 -0.68 0.68 0 0 Z " fill="#566E7C" transform="translate(92,113)"/>
<path d="M0 0 C1.50433594 0.01353516 1.50433594 0.01353516 3.0390625 0.02734375 C3.80992187 0.03894531 4.58078125 0.05054688 5.375 0.0625 C3.60055028 2.30856427 2.79147515 3.01331002 -0.10546875 3.35546875 C-0.99878906 3.32066406 -1.89210937 3.28585938 -2.8125 3.25 C-3.71355469 3.22292969 -4.61460937 3.19585937 -5.54296875 3.16796875 C-6.57357422 3.11576172 -6.57357422 3.11576172 -7.625 3.0625 C-7.625 2.4025 -7.625 1.7425 -7.625 1.0625 C-4.98041621 -0.25979189 -2.94738699 -0.03427194 0 0 Z " fill="#1E515B" transform="translate(157.625,164.9375)"/>
<path d="M0 0 C0.66 0 1.32 0 2 0 C2 1.32 2 2.64 2 4 C2.639375 4.268125 3.27875 4.53625 3.9375 4.8125 C6 6 6 6 7 9 C7.66 9 8.32 9 9 9 C9 9.66 9 10.32 9 11 C4.70073737 9.40768051 2.64994267 6.60686641 0 3 C0 2.01 0 1.02 0 0 Z " fill="#5DCDB7" transform="translate(71,156)"/>
<path d="M0 0 C0.33 0 0.66 0 1 0 C1.08126087 2.08268593 1.13930839 4.16628658 1.1875 6.25 C1.22230469 7.41015625 1.25710937 8.5703125 1.29296875 9.765625 C0.97982934 13.22268407 0.34290892 14.51565563 -2 17 C-2.66 15.68 -3.32 14.36 -4 13 C-3.34 13 -2.68 13 -2 13 C-2 12.34 -2 11.68 -2 11 C-1.34 11 -0.68 11 0 11 C0 7.37 0 3.74 0 0 Z " fill="#7F919C" transform="translate(169,144)"/>
<path d="M0 0 C2.31 0 4.62 0 7 0 C7 0.66 7 1.32 7 2 C8.32 2.66 9.64 3.32 11 4 C9.4375 4.75 9.4375 4.75 7 5 C4.49713591 3.86915563 2.32992278 2.47860484 0 1 C0 0.67 0 0.34 0 0 Z " fill="#044651" transform="translate(141,162)"/>
<path d="M0 0 C2.97 0 5.94 0 9 0 C9.33 1.98 9.66 3.96 10 6 C6.00499382 4.6302836 3.19990508 2.74277578 0 0 Z " fill="#60D6C1" transform="translate(100,179)"/>
<path d="M0 0 C0.66 0 1.32 0 2 0 C2 3.63 2 7.26 2 11 C1.34 11 0.68 11 0 11 C-1.37432457 7.18243176 -0.67975039 3.92744671 0 0 Z " fill="#122F40" transform="translate(167,144)"/>
<path d="M0 0 C1.65 0 3.3 0 5 0 C5 0.99 5 1.98 5 3 C5.99 3.33 6.98 3.66 8 4 C8 4.66 8 5.32 8 6 C4.64532525 4.82133049 2.28780716 3.76945078 0 1 C0 0.67 0 0.34 0 0 Z " fill="#5BD6BE" transform="translate(140,100)"/>
<path d="M0 0 C1.32 0.33 2.64 0.66 4 1 C1.64722731 3.72426311 -0.62496331 4.8141763 -4 6 C-3.67 4.68 -3.34 3.36 -3 2 C-2.01 2 -1.02 2 0 2 C0 1.34 0 0.68 0 0 Z " fill="#59D3BE" transform="translate(137,177)"/>
<path d="M0 0 C1.65 0 3.3 0 5 0 C5.33 1.32 5.66 2.64 6 4 C3.03 3.505 3.03 3.505 0 3 C0 2.01 0 1.02 0 0 Z " fill="#29C8AC" transform="translate(148,103)"/>
<path d="M0 0 C0.70125 0.309375 1.4025 0.61875 2.125 0.9375 C5.08936657 2.03302678 7.87698108 2.56422992 11 3 C10.34 3.66 9.68 4.32 9 5 C5.62008426 4.6442194 2.95711562 3.64284201 0 2 C0 1.34 0 0.68 0 0 Z " fill="#48BDAC" transform="translate(118,150)"/>
<path d="M0 0 C2.64 0.33 5.28 0.66 8 1 C8.33 2.32 8.66 3.64 9 5 C5.22454612 3.90931332 2.52956528 3.0916909 0 0 Z " fill="#75DBCC" transform="translate(115,87)"/>
<path d="M0 0 C3.59391114 1.33488128 6.75490696 2.96022723 10 5 C8 6 8 6 5 5.3125 C2 4 2 4 0.625 1.875 C0.41875 1.25625 0.2125 0.6375 0 0 Z " fill="#9CE7DA" transform="translate(146,64)"/>
<path d="M0 0 C2.88437779 1.29299694 4.87219421 2.65941363 7 5 C6.67 5.66 6.34 6.32 6 7 C1.2 4.53846154 1.2 4.53846154 0.1875 1.8125 C0.125625 1.214375 0.06375 0.61625 0 0 Z " fill="#84DED1" transform="translate(161,73)"/>
<path d="M0 0 C5.53846154 -0.36923077 5.53846154 -0.36923077 7.875 1.5 C8.24625 1.995 8.6175 2.49 9 3 C3.46153846 3.36923077 3.46153846 3.36923077 1.125 1.5 C0.75375 1.005 0.3825 0.51 0 0 Z " fill="#41CEB6" transform="translate(87,171)"/>
<path d="M0 0 C2.475 0.495 2.475 0.495 5 1 C5 1.99 5 2.98 5 4 C4.01 4 3.02 4 2 4 C2 4.66 2 5.32 2 6 C1.34 5.67 0.68 5.34 0 5 C0 3.35 0 1.7 0 0 Z " fill="#2FC5AD" transform="translate(148,167)"/>
</svg>
